<svg width="195" height="60" viewBox="0 0 195 60" fill="none" xmlns="http://www.w3.org/2000/svg">
<path d="M61.2262 32.615V13.5076H69.5739C71.5795 13.5076 73.1333 13.9503 74.2355 14.8357C75.3377 15.7029 75.8888 16.9135 75.8888 18.4674C75.8888 19.4973 75.6268 20.3827 75.1028 21.1235C74.5788 21.8643 73.8561 22.4063 72.9346 22.7496C74.0187 23.0568 74.8589 23.5988 75.4551 24.3758C76.0695 25.1347 76.3766 26.1013 76.3766 27.2758C76.3766 28.9742 75.7984 30.2932 74.6421 31.2328C73.5037 32.1542 71.9137 32.615 69.872 32.615H61.2262ZM64.5599 21.6113H68.9776C71.3446 21.6113 72.528 20.6989 72.528 18.874C72.528 17.049 71.3446 16.1366 68.9776 16.1366H64.5599V21.6113ZM64.5599 29.986H69.4383C71.8234 29.986 73.0159 29.0284 73.0159 27.1132C73.0159 25.1979 71.8234 24.2403 69.4383 24.2403H64.5599V29.986ZM79.3437 16.516V13.2095H83.1381V16.516H79.3437ZM79.5605 32.615V19.3618H82.9484V32.615H79.5605ZM91.3199 32.886C90.1997 32.886 89.1517 32.7505 88.176 32.4795C87.2003 32.2085 86.3872 31.82 85.7368 31.3141L86.6041 29.0916C87.2726 29.5434 88.0224 29.8957 88.8536 30.1487C89.6847 30.3835 90.5159 30.501 91.347 30.501C92.2143 30.501 92.8557 30.3564 93.2713 30.0673C93.7049 29.7602 93.9218 29.3627 93.9218 28.8748C93.9218 28.116 93.3616 27.6281 92.2414 27.4113L89.5311 26.8963C87.2365 26.4627 86.0891 25.2702 86.0891 23.3188C86.0891 22.4515 86.324 21.7017 86.7938 21.0693C87.2816 20.4369 87.9502 19.949 88.7994 19.6057C89.6486 19.2624 90.6243 19.0908 91.7265 19.0908C92.666 19.0908 93.5694 19.2263 94.4367 19.4973C95.304 19.7503 96.0448 20.1387 96.6591 20.6627L95.7376 22.8851C95.2137 22.4515 94.5813 22.1082 93.8405 21.8552C93.1177 21.6023 92.4221 21.4758 91.7536 21.4758C90.8682 21.4758 90.2087 21.6294 89.7751 21.9366C89.3595 22.2437 89.1517 22.6503 89.1517 23.1562C89.1517 23.9512 89.6667 24.439 90.6966 24.6197L93.4068 25.1347C94.5813 25.3515 95.4666 25.749 96.0629 26.3272C96.6772 26.9054 96.9844 27.6823 96.9844 28.658C96.9844 29.977 96.4694 31.0159 95.4395 31.7748C94.4096 32.5156 93.0364 32.886 91.3199 32.886ZM104.066 32.886C103.108 32.886 102.25 32.7053 101.491 32.344C100.75 31.9645 100.163 31.4586 99.7294 30.8262C99.3138 30.1938 99.106 29.4801 99.106 28.6851C99.106 27.7094 99.359 26.9415 99.8649 26.3814C100.371 25.8032 101.193 25.3876 102.331 25.1347C103.47 24.8817 104.996 24.7552 106.912 24.7552H107.86V24.1861C107.86 23.2826 107.661 22.6322 107.264 22.2347C106.866 21.8372 106.198 21.6384 105.258 21.6384C104.517 21.6384 103.759 21.7559 102.982 21.9908C102.205 22.2076 101.419 22.5509 100.624 23.0207L99.648 20.7169C100.118 20.3917 100.669 20.1116 101.301 19.8767C101.952 19.6238 102.629 19.4341 103.334 19.3076C104.057 19.163 104.734 19.0908 105.367 19.0908C107.3 19.0908 108.736 19.5425 109.676 20.4459C110.616 21.3313 111.085 22.7135 111.085 24.5926V32.615H107.914V30.501C107.607 31.2418 107.119 31.829 106.451 32.2627C105.782 32.6782 104.987 32.886 104.066 32.886ZM104.77 30.5552C105.656 30.5552 106.388 30.248 106.966 29.6337C107.562 29.0194 107.86 28.2424 107.86 27.3029V26.7066H106.939C105.24 26.7066 104.057 26.8421 103.388 27.1132C102.738 27.3661 102.413 27.8359 102.413 28.5225C102.413 29.1187 102.62 29.6066 103.036 29.986C103.451 30.3655 104.03 30.5552 104.77 30.5552ZM114.524 37.4935V19.3618H117.831V21.4758C118.21 20.7531 118.779 20.1749 119.538 19.7412C120.315 19.3076 121.191 19.0908 122.167 19.0908C123.323 19.0908 124.335 19.3708 125.202 19.931C126.088 20.4911 126.774 21.2861 127.262 22.316C127.75 23.3278 127.994 24.5474 127.994 25.9748C127.994 27.3842 127.75 28.6128 127.262 29.6608C126.774 30.6907 126.097 31.4857 125.23 32.0458C124.362 32.606 123.341 32.886 122.167 32.886C121.227 32.886 120.378 32.6873 119.619 32.2898C118.878 31.8742 118.309 31.3231 117.912 30.6365V37.4935H114.524ZM121.218 30.3113C122.23 30.3113 123.043 29.9499 123.658 29.2272C124.272 28.4864 124.579 27.4022 124.579 25.9748C124.579 24.5294 124.272 23.4543 123.658 22.7496C123.043 22.0269 122.23 21.6655 121.218 21.6655C120.207 21.6655 119.393 22.0269 118.779 22.7496C118.165 23.4543 117.858 24.5294 117.858 25.9748C117.858 27.4022 118.165 28.4864 118.779 29.2272C119.393 29.9499 120.207 30.3113 121.218 30.3113ZM130.775 37.4935V19.3618H134.082V21.4758C134.461 20.7531 135.03 20.1749 135.789 19.7412C136.566 19.3076 137.442 19.0908 138.418 19.0908C139.574 19.0908 140.586 19.3708 141.453 19.931C142.339 20.4911 143.025 21.2861 143.513 22.316C144.001 23.3278 144.245 24.5474 144.245 25.9748C144.245 27.3842 144.001 28.6128 143.513 29.6608C143.025 30.6907 142.348 31.4857 141.481 32.0458C140.613 32.606 139.592 32.886 138.418 32.886C137.478 32.886 136.629 32.6873 135.87 32.2898C135.129 31.8742 134.56 31.3231 134.163 30.6365V37.4935H130.775ZM137.469 30.3113C138.481 30.3113 139.294 29.9499 139.909 29.2272C140.523 28.4864 140.83 27.4022 140.83 25.9748C140.83 24.5294 140.523 23.4543 139.909 22.7496C139.294 22.0269 138.481 21.6655 137.469 21.6655C136.458 21.6655 135.644 22.0269 135.03 22.7496C134.416 23.4543 134.109 24.5294 134.109 25.9748C134.109 27.4022 134.416 28.4864 135.03 29.2272C135.644 29.9499 136.458 30.3113 137.469 30.3113ZM151.877 32.886C150.757 32.886 149.709 32.7505 148.733 32.4795C147.758 32.2085 146.945 31.82 146.294 31.3141L147.162 29.0916C147.83 29.5434 148.58 29.8957 149.411 30.1487C150.242 30.3835 151.073 30.501 151.904 30.501C152.772 30.501 153.413 30.3564 153.829 30.0673C154.262 29.7602 154.479 29.3627 154.479 28.8748C154.479 28.116 153.919 27.6281 152.799 27.4113L150.089 26.8963C147.794 26.4627 146.647 25.2702 146.647 23.3188C146.647 22.4515 146.881 21.7017 147.351 21.0693C147.839 20.4369 148.508 19.949 149.357 19.6057C150.206 19.2624 151.182 19.0908 152.284 19.0908C153.223 19.0908 154.127 19.2263 154.994 19.4973C155.861 19.7503 156.602 20.1387 157.217 20.6627L156.295 22.8851C155.771 22.4515 155.139 22.1082 154.398 21.8552C153.675 21.6023 152.98 21.4758 152.311 21.4758C151.426 21.4758 150.766 21.6294 150.333 21.9366C149.917 22.2437 149.709 22.6503 149.709 23.1562C149.709 23.9512 150.224 24.439 151.254 24.6197L153.964 25.1347C155.139 25.3515 156.024 25.749 156.62 26.3272C157.235 26.9054 157.542 27.6823 157.542 28.658C157.542 29.977 157.027 31.0159 155.997 31.7748C154.967 32.5156 153.594 32.886 151.877 32.886ZM159.829 32.615V28.8477H163.624V32.615H159.829Z" fill="#2C3E50"/>
<path d="M65.1372 46.4934C64.0103 46.4934 63.1472 46.1977 62.5478 45.6063C61.9565 45.0069 61.6608 44.1318 61.6608 42.981V37.9342H62.9075V42.957C62.9075 44.5953 63.6507 45.4145 65.1372 45.4145C66.6237 45.4145 67.3669 44.5953 67.3669 42.957V37.9342H68.5896V42.981C68.5896 44.1318 68.2979 45.0069 67.7145 45.6063C67.1311 46.1977 66.272 46.4934 65.1372 46.4934ZM70.3806 48.5433V40.5355H71.5674V41.5305C71.7352 41.1948 71.9909 40.9271 72.3346 40.7273C72.6782 40.5275 73.0738 40.4276 73.5214 40.4276C74.0408 40.4276 74.4924 40.5515 74.876 40.7992C75.2676 41.047 75.5673 41.3986 75.7751 41.8541C75.9908 42.3017 76.0987 42.8371 76.0987 43.4605C76.0987 44.0839 75.9908 44.6233 75.7751 45.0788C75.5673 45.5344 75.2676 45.886 74.876 46.1338C74.4924 46.3735 74.0408 46.4934 73.5214 46.4934C73.0898 46.4934 72.7022 46.4015 72.3586 46.2177C72.0229 46.0259 71.7672 45.7661 71.5914 45.4385V48.5433H70.3806ZM73.2217 45.5583C73.7252 45.5583 74.1248 45.3785 74.4204 45.0189C74.7241 44.6593 74.876 44.1398 74.876 43.4605C74.876 42.7812 74.7241 42.2657 74.4204 41.9141C74.1248 41.5545 73.7252 41.3746 73.2217 41.3746C72.7182 41.3746 72.3146 41.5545 72.0109 41.9141C71.7152 42.2657 71.5674 42.7812 71.5674 43.4605C71.5674 44.1398 71.7152 44.6593 72.0109 45.0189C72.3146 45.3785 72.7182 45.5583 73.2217 45.5583ZM80.1125 48.6512C79.585 48.6512 79.0935 48.5872 78.638 48.4594C78.1824 48.3395 77.7788 48.1477 77.4272 47.884L77.7988 47.0208C78.1505 47.2606 78.5101 47.4364 78.8777 47.5483C79.2453 47.6602 79.629 47.7161 80.0285 47.7161C81.1474 47.7161 81.7068 47.1567 81.7068 46.0379V45.1148C81.539 45.4664 81.2753 45.7422 80.9156 45.942C80.564 46.1417 80.1684 46.2416 79.7288 46.2416C79.2014 46.2416 78.7419 46.1218 78.3503 45.882C77.9587 45.6343 77.655 45.2946 77.4392 44.8631C77.2234 44.4235 77.1155 43.912 77.1155 43.3286C77.1155 42.7532 77.2234 42.2497 77.4392 41.8182C77.655 41.3786 77.9587 41.039 78.3503 40.7992C78.7419 40.5515 79.2014 40.4276 79.7288 40.4276C80.1764 40.4276 80.576 40.5275 80.9276 40.7273C81.2793 40.9271 81.539 41.2028 81.7068 41.5545V40.5355H82.8816V45.894C82.8816 46.8131 82.6459 47.5004 82.1743 47.9559C81.7028 48.4194 81.0155 48.6512 80.1125 48.6512ZM80.0166 45.2946C80.528 45.2946 80.9356 45.1188 81.2393 44.7672C81.543 44.4155 81.6948 43.936 81.6948 43.3286C81.6948 42.7213 81.543 42.2457 81.2393 41.9021C80.9356 41.5505 80.528 41.3746 80.0166 41.3746C79.5051 41.3746 79.0975 41.5505 78.7938 41.9021C78.4901 42.2457 78.3383 42.7213 78.3383 43.3286C78.3383 43.936 78.4901 44.4155 78.7938 44.7672C79.0975 45.1188 79.5051 45.2946 80.0166 45.2946ZM84.5809 46.3855V40.5355H85.7557V41.5784C86.0594 40.8831 86.6907 40.4955 87.6497 40.4156L88.0453 40.3916L88.1292 41.4226L87.398 41.4945C86.3351 41.5984 85.8036 42.1458 85.8036 43.1368V46.3855H84.5809ZM90.8644 46.4934C90.4568 46.4934 90.0932 46.4135 89.7735 46.2536C89.4538 46.0938 89.1981 45.878 89.0063 45.6063C88.8225 45.3346 88.7306 45.0269 88.7306 44.6832C88.7306 44.2517 88.8385 43.912 89.0543 43.6643C89.278 43.4165 89.6417 43.2367 90.1451 43.1248C90.6566 43.013 91.3439 42.957 92.207 42.957H92.6146V42.6453C92.6146 42.1898 92.5187 41.8621 92.3269 41.6623C92.1351 41.4625 91.8194 41.3626 91.3799 41.3626C91.0442 41.3626 90.7086 41.4146 90.3729 41.5185C90.0372 41.6144 89.6936 41.7702 89.342 41.986L88.9703 41.1349C89.274 40.9191 89.6536 40.7473 90.1092 40.6194C90.5647 40.4915 91.0003 40.4276 91.4158 40.4276C92.215 40.4276 92.8064 40.6194 93.19 41.003C93.5736 41.3786 93.7654 41.97 93.7654 42.7772V46.3855H92.6266V45.4145C92.4827 45.7501 92.259 46.0139 91.9553 46.2057C91.6516 46.3975 91.288 46.4934 90.8644 46.4934ZM91.1042 45.6303C91.5357 45.6303 91.8953 45.4784 92.183 45.1747C92.4708 44.8711 92.6146 44.4874 92.6146 44.0239V43.7003H92.219C91.6356 43.7003 91.1761 43.7282 90.8404 43.7842C90.5128 43.8401 90.277 43.936 90.1331 44.0719C89.9973 44.1997 89.9294 44.3796 89.9294 44.6113C89.9294 44.915 90.0333 45.1628 90.241 45.3546C90.4488 45.5384 90.7365 45.6303 91.1042 45.6303ZM97.6627 46.4934C97.1513 46.4934 96.6997 46.3735 96.3081 46.1338C95.9245 45.886 95.6248 45.5344 95.409 45.0788C95.1933 44.6233 95.0854 44.0839 95.0854 43.4605C95.0854 42.8371 95.1933 42.3017 95.409 41.8541C95.6248 41.3986 95.9245 41.047 96.3081 40.7992C96.6917 40.5515 97.1433 40.4276 97.6627 40.4276C98.1023 40.4276 98.4939 40.5235 98.8375 40.7153C99.1812 40.9071 99.4369 41.1669 99.6047 41.4945V37.9342H100.816V46.3855H99.6287V45.3665C99.4609 45.7182 99.2012 45.9939 98.8495 46.1937C98.5059 46.3935 98.1103 46.4934 97.6627 46.4934ZM97.9744 45.5583C98.4699 45.5583 98.8695 45.3785 99.1732 45.0189C99.4769 44.6593 99.6287 44.1398 99.6287 43.4605C99.6287 42.7812 99.4769 42.2657 99.1732 41.9141C98.8695 41.5545 98.4699 41.3746 97.9744 41.3746C97.4709 41.3746 97.0673 41.5545 96.7637 41.9141C96.46 42.2657 96.3081 42.7812 96.3081 43.4605C96.3081 44.1398 96.46 44.6593 96.7637 45.0189C97.0673 45.3785 97.4709 45.5583 97.9744 45.5583ZM105.261 46.4934C104.302 46.4934 103.547 46.2257 102.995 45.6902C102.444 45.1468 102.168 44.4075 102.168 43.4725C102.168 42.8731 102.288 42.3456 102.528 41.8901C102.775 41.4266 103.115 41.067 103.547 40.8112C103.978 40.5555 104.474 40.4276 105.033 40.4276C105.84 40.4276 106.476 40.6873 106.939 41.2068C107.403 41.7183 107.634 42.4256 107.634 43.3286V43.7362H103.343C103.431 44.951 104.074 45.5583 105.273 45.5583C105.608 45.5583 105.936 45.5064 106.256 45.4025C106.583 45.2986 106.891 45.1268 107.179 44.887L107.538 45.7262C107.275 45.9659 106.935 46.1537 106.519 46.2896C106.104 46.4255 105.684 46.4934 105.261 46.4934ZM105.081 41.2787C104.577 41.2787 104.178 41.4346 103.882 41.7463C103.587 42.0579 103.407 42.4735 103.343 42.993H106.615C106.591 42.4495 106.448 42.03 106.184 41.7343C105.92 41.4306 105.552 41.2787 105.081 41.2787ZM114.261 46.3855V42.4415L111.025 37.9342H112.463L114.909 41.3507L117.354 37.9342H118.733L115.496 42.4535V46.3855H114.261ZM120.943 46.4934C120.352 46.4934 119.84 46.3695 119.409 46.1218C118.977 45.874 118.641 45.5264 118.402 45.0788C118.17 44.6233 118.054 44.0839 118.054 43.4605C118.054 42.8371 118.17 42.3017 118.402 41.8541C118.641 41.3986 118.977 41.047 119.409 40.7992C119.84 40.5515 120.352 40.4276 120.943 40.4276C121.518 40.4276 122.022 40.5515 122.453 40.7992C122.885 41.047 123.221 41.3986 123.46 41.8541C123.7 42.3017 123.82 42.8371 123.82 43.4605C123.82 44.0839 123.7 44.6233 123.46 45.0788C123.221 45.5264 122.885 45.874 122.453 46.1218C122.022 46.3695 121.518 46.4934 120.943 46.4934ZM120.943 45.5583C121.439 45.5583 121.838 45.3785 122.142 45.0189C122.446 44.6593 122.597 44.1398 122.597 43.4605C122.597 42.7812 122.446 42.2657 122.142 41.9141C121.838 41.5545 121.439 41.3746 120.943 41.3746C120.44 41.3746 120.036 41.5545 119.732 41.9141C119.429 42.2657 119.277 42.7812 119.277 43.4605C119.277 44.1398 119.429 44.6593 119.732 45.0189C120.036 45.3785 120.44 45.5583 120.943 45.5583ZM127.266 46.4934C125.851 46.4934 125.144 45.7062 125.144 44.1318V40.5355H126.355V44.1438C126.355 44.6153 126.451 44.963 126.642 45.1867C126.834 45.4105 127.138 45.5224 127.553 45.5224C128.009 45.5224 128.377 45.3705 128.656 45.0669C128.944 44.7632 129.088 44.3556 129.088 43.8441V40.5355H130.299V46.3855H129.124V45.4505C128.932 45.7941 128.676 46.0538 128.357 46.2297C128.037 46.4055 127.673 46.4934 127.266 46.4934ZM132.005 46.3855V40.5355H133.18V41.5784C133.483 40.8831 134.115 40.4955 135.074 40.4156L135.469 40.3916L135.553 41.4226L134.822 41.4945C133.759 41.5984 133.228 42.1458 133.228 43.1368V46.3855H132.005ZM138.907 46.3855L142.671 37.9342H143.702L147.478 46.3855H146.207L145.32 44.3236H141.041L140.165 46.3855H138.907ZM143.174 39.3128L141.484 43.3166H144.901L143.198 39.3128H143.174ZM148.453 48.5433V40.5355H149.64V41.5305C149.807 41.1948 150.063 40.9271 150.407 40.7273C150.751 40.5275 151.146 40.4276 151.594 40.4276C152.113 40.4276 152.565 40.5515 152.948 40.7992C153.34 41.047 153.64 41.3986 153.847 41.8541C154.063 42.3017 154.171 42.8371 154.171 43.4605C154.171 44.0839 154.063 44.6233 153.847 45.0788C153.64 45.5344 153.34 45.886 152.948 46.1338C152.565 46.3735 152.113 46.4934 151.594 46.4934C151.162 46.4934 150.774 46.4015 150.431 46.2177C150.095 46.0259 149.839 45.7661 149.664 45.4385V48.5433H148.453ZM151.294 45.5583C151.797 45.5583 152.197 45.3785 152.493 45.0189C152.796 44.6593 152.948 44.1398 152.948 43.4605C152.948 42.7812 152.796 42.2657 152.493 41.9141C152.197 41.5545 151.797 41.3746 151.294 41.3746C150.79 41.3746 150.387 41.5545 150.083 41.9141C149.787 42.2657 149.64 42.7812 149.64 43.4605C149.64 44.1398 149.787 44.6593 150.083 45.0189C150.387 45.3785 150.79 45.5583 151.294 45.5583ZM155.535 48.5433V40.5355H156.722V41.5305C156.89 41.1948 157.146 40.9271 157.489 40.7273C157.833 40.5275 158.229 40.4276 158.676 40.4276C159.196 40.4276 159.647 40.5515 160.031 40.7992C160.422 41.047 160.722 41.3986 160.93 41.8541C161.146 42.3017 161.254 42.8371 161.254 43.4605C161.254 44.0839 161.146 44.6233 160.93 45.0788C160.722 45.5344 160.422 45.886 160.031 46.1338C159.647 46.3735 159.196 46.4934 158.676 46.4934C158.245 46.4934 157.857 46.4015 157.513 46.2177C157.178 46.0259 156.922 45.7661 156.746 45.4385V48.5433H155.535ZM158.377 45.5583C158.88 45.5583 159.28 45.3785 159.575 45.0189C159.879 44.6593 160.031 44.1398 160.031 43.4605C160.031 42.7812 159.879 42.2657 159.575 41.9141C159.28 41.5545 158.88 41.3746 158.377 41.3746C157.873 41.3746 157.469 41.5545 157.166 41.9141C156.87 42.2657 156.722 42.7812 156.722 43.4605C156.722 44.1398 156.87 44.6593 157.166 45.0189C157.469 45.3785 157.873 45.5583 158.377 45.5583ZM164.668 46.4934C164.188 46.4934 163.741 46.4334 163.325 46.3136C162.91 46.1857 162.562 46.0099 162.282 45.7861L162.63 44.9709C162.926 45.1787 163.249 45.3386 163.601 45.4505C163.961 45.5623 164.32 45.6183 164.68 45.6183C165.103 45.6183 165.423 45.5424 165.639 45.3905C165.855 45.2387 165.963 45.0349 165.963 44.7791C165.963 44.5714 165.891 44.4115 165.747 44.2996C165.603 44.1798 165.387 44.0879 165.099 44.0239L163.961 43.7962C162.954 43.5884 162.45 43.0689 162.45 42.2378C162.45 41.6863 162.67 41.2468 163.11 40.9191C163.549 40.5914 164.124 40.4276 164.836 40.4276C165.243 40.4276 165.631 40.4875 165.999 40.6074C166.374 40.7273 166.686 40.9071 166.934 41.1469L166.586 41.962C166.346 41.7542 166.07 41.5944 165.759 41.4825C165.447 41.3706 165.139 41.3147 164.836 41.3147C164.42 41.3147 164.104 41.3946 163.889 41.5545C163.673 41.7063 163.565 41.9141 163.565 42.1778C163.565 42.5774 163.829 42.8331 164.356 42.945L165.495 43.1728C166.015 43.2767 166.406 43.4525 166.67 43.7003C166.942 43.948 167.077 44.2837 167.077 44.7072C167.077 45.2666 166.858 45.7062 166.418 46.0259C165.979 46.3375 165.395 46.4934 164.668 46.4934ZM174.523 46.4934C173.859 46.4934 173.252 46.4095 172.701 46.2416C172.149 46.0658 171.682 45.8221 171.298 45.5104L171.694 44.5274C172.093 44.8311 172.521 45.0589 172.976 45.2107C173.432 45.3625 173.947 45.4385 174.523 45.4385C175.202 45.4385 175.701 45.3186 176.021 45.0788C176.349 44.8311 176.513 44.5114 176.513 44.1198C176.513 43.8001 176.397 43.5484 176.165 43.3646C175.933 43.1728 175.546 43.0209 175.002 42.9091L173.719 42.6453C172.96 42.4855 172.393 42.2218 172.017 41.8541C171.65 41.4865 171.466 40.991 171.466 40.3677C171.466 39.8642 171.598 39.4206 171.861 39.037C172.133 38.6534 172.509 38.3577 172.988 38.1499C173.468 37.9342 174.019 37.8263 174.643 37.8263C175.218 37.8263 175.749 37.9142 176.237 38.09C176.732 38.2578 177.152 38.5056 177.496 38.8332L177.088 39.7803C176.409 39.1809 175.59 38.8812 174.631 38.8812C174.039 38.8812 173.568 39.0131 173.216 39.2768C172.872 39.5405 172.701 39.8922 172.701 40.3317C172.701 40.6674 172.808 40.9351 173.024 41.1349C173.24 41.3347 173.6 41.4865 174.103 41.5904L175.374 41.8541C176.173 42.022 176.768 42.2817 177.16 42.6333C177.552 42.977 177.747 43.4445 177.747 44.0359C177.747 44.5314 177.615 44.963 177.352 45.3306C177.088 45.6982 176.716 45.9859 176.237 46.1937C175.757 46.3935 175.186 46.4934 174.523 46.4934ZM179.031 46.3855V37.9342H180.242V43.0889H180.266L182.807 40.5355H184.305L181.5 43.3526L184.521 46.3855H183.011L180.266 43.7122H180.242V46.3855H179.031ZM185.104 39.1809V37.9222H186.519V39.1809H185.104ZM185.212 46.3855V40.5355H186.423V46.3855H185.212ZM190.033 46.4934C189.394 46.4934 188.914 46.3136 188.595 45.9539C188.283 45.5943 188.127 45.0669 188.127 44.3716V37.9342H189.338V44.2996C189.338 45.0908 189.661 45.4864 190.309 45.4864C190.405 45.4864 190.493 45.4824 190.573 45.4744C190.66 45.4664 190.748 45.4505 190.836 45.4265L190.812 46.3975C190.541 46.4614 190.281 46.4934 190.033 46.4934ZM193.697 46.4934C193.058 46.4934 192.578 46.3136 192.259 45.9539C191.947 45.5943 191.791 45.0669 191.791 44.3716V37.9342H193.002V44.2996C193.002 45.0908 193.326 45.4864 193.973 45.4864C194.069 45.4864 194.157 45.4824 194.237 45.4744C194.325 45.4664 194.413 45.4505 194.5 45.4265L194.476 46.3975C194.205 46.4614 193.945 46.4934 193.697 46.4934Z" fill="#2C3E50"/>
<path d="M25.3074 10.6494H35.4303V20.479H25.3074V10.6494Z" fill="#2C3E50"/>
<path d="M10.123 40.1381H20.2459V49.9676H10.123V40.1381Z" fill="#2C3E50"/>
<path d="M10.123 25.3938H20.2459V35.2233H10.123V25.3938Z" fill="#2C3E50"/>
<path d="M10.123 10.6494H20.2459V20.479H10.123V10.6494Z" fill="#2C3E50"/>
<path d="M35.4303 31.3406V25.3938H25.3074V35.2233H31.4318L35.4303 31.3406Z" fill="#38ADA9"/>
<path d="M52.8419 28.5638L49.8809 25.6887C49.476 25.2955 48.818 25.2955 48.4131 25.6887L46.1861 27.8512L50.6149 32.1516L52.8419 29.9891C53.2468 29.5959 53.2468 28.957 52.8419 28.5638Z" fill="#2C3E50"/>
<path d="M27.8381 45.6671V49.9676H32.2669L49.1469 33.5768L44.7181 29.2764L27.8381 45.6671Z" fill="#2C3E50"/>
<path d="M40.4919 10.6494H50.6148V20.479H40.4919V10.6494Z" fill="#2C3E50"/>
</svg>
